PathFileType	4	(x/y/z)	TRC_MarkerData\Passive\Passive_Pref0011.trc
DataRate	CameraRate	NumFrames	NumMarkers	Units	OrigDataRate	OrigDataStartFrame	OrigNumFrames
240	240	5	50	mm	240	194	309
Frame#	Time	R_AC			L_AC			HEAD			STERN			C7			L_IC			R_IC			L_ASIS			R_ASIS			L_GT			R_GT			L_PSIS			R_PSIS			SACRAL			L_LAT_KNEE			L_MED_KNEE			R_LAT_KNEE			R_MED_KNEE			L_LAT_ANK			L_MED_ANK			R_LAT_ANK			R_MED_ANK			L_THIGH_PROX_POST			L_THIGH_PROX_ANT			L_THIGH_DIST_ANT			L_THIGH_DIST_POST			R_THIGH_PROX_POST			R_THIGH_PROX_ANT			R_THIGH_DIST_ANT			R_THIGH_DIST_POST			L_SHANK_PROX_POST			L_SHANK_PROX_ANT			L_SHANK_DIST_ANT			L_SHANK_DIST_POST			R_SHANK_PROX_POST			R_SHANK_PROX_ANT			R_SHANK_DIST_ANT			R_SHANK_DIST_POST			L_HEEL_LAT			L_HEEL_SUP			L_HEEL_MED			R_HEEL_LAT			R_HEEL_SUP			R_HEEL_MED			L_1ST_MET			L_5TH_MET			L_TOE			R_1ST_MET			R_5TH_MET			R_TOE			
		X1	Y1	Z1	X2	Y2	Z2	X3	Y3	Z3	X4	Y4	Z4	X5	Y5	Z5	X6	Y6	Z6	X7	Y7	Z7	X8	Y8	Z8	X9	Y9	Z9	X10	Y10	Z10	X11	Y11	Z11	X12	Y12	Z12	X13	Y13	Z13	X14	Y14	Z14	X15	Y15	Z15	X16	Y16	Z16	X17	Y17	Z17	X18	Y18	Z18	X19	Y19	Z19	X20	Y20	Z20	X21	Y21	Z21	X22	Y22	Z22	X23	Y23	Z23	X24	Y24	Z24	X25	Y25	Z25	X26	Y26	Z26	X27	Y27	Z27	X28	Y28	Z28	X29	Y29	Z29	X30	Y30	Z30	X31	Y31	Z31	X32	Y32	Z32	X33	Y33	Z33	X34	Y34	Z34	X35	Y35	Z35	X36	Y36	Z36	X37	Y37	Z37	X38	Y38	Z38	X39	Y39	Z39	X40	Y40	Z40	X41	Y41	Z41	X42	Y42	Z42	X43	Y43	Z43	X44	Y44	Z44	X45	Y45	Z45	X46	Y46	Z46	X47	Y47	Z47	X48	Y48	Z48	X49	Y49	Z49	X50	Y50	Z50	

194	0.80678	155.85	1493.2	487.91	120.97	1526	86.274	167.54	1834.3	303.95	211.04	1476.4	283.13	75.882	1551.9	291.07	122.38	1078	107.15	135.85	1083.6	444.03	169.74	1009.8	135.12	199.32	1033.1	399.73	65.924	929.13	95.695	133.39	953.2	457.42	-14.497	1031	230.78	-9.6061	1025.4	337.84	-19.92	996.14	283.64	33.28	512.9	120.1	51.635	524.4	257.15	281.36	552.67	399.17	266.75	555.29	268.43	-352.72	255.18	170.17	-353.53	261.13	259.11	257.35	83.626	335	291.32	123.09	242.13	35.875	752.25	111.28	98.497	740.44	106.54	93.417	668.53	117.11	24.834	681.63	108.63	184.88	766.22	448.94	248.83	792.66	443.23	271.36	720.38	430.87	204.01	696.21	431.86	-59.009	469.66	145.6	-17.071	421.89	151.41	-55.119	390.07	162.03	-92.499	434.66	146.7	255.45	359.68	400.58	319.37	371.25	380.04	319.5	298.43	362.47	254.66	286.6	382.25	-445.77	243.5	178.21	-435.59	273.69	208.39	-448.11	252.69	244.59	189.66	35.162	302.26	188.01	69.16	271.48	208.4	45.42	239.23	-292.33	93.802	282.49	-308	101.06	172.54	-248.24	68.314	252.26	418.88	63.869	246.46	400.6	41.646	353.91	465.15	69.068	288.74
195	0.81096	161.19	1494.2	488.03	125.6	1526.8	86.451	172.93	1835.1	304.49	216.08	1477.3	283.18	80.981	1552.7	291.35	127.66	1078.7	107.65	141.6	1084.5	444.44	175.31	1010.9	135.68	204.86	1033.9	400.23	71.965	929.69	96.082	138.96	953.69	457.8	-9.0819	1031.4	231.34	-4.0326	1026	338.41	-14.342	996.59	284.27	43.371	512.96	118.79	62.222	524.04	255.79	284.76	552.47	399.22	270.36	555.28	268.41	-344.99	258.84	169.39	-345.47	264.63	258.35	257.74	83.82	334.8	291.85	122.97	241.84	43.95	752.29	110.97	106.68	741.27	106.2	102.37	669.23	116.37	33.224	682.01	107.37	189.54	766.42	449.06	253.55	792.49	443.45	275.67	720.09	431.06	208.23	696.32	431.92	-49.277	470.56	144.44	-7.745	422.34	150.08	-46.071	390.86	160.73	-83.106	435.88	145.57	257.62	359.7	400.41	321.66	370.86	379.97	321.33	298.05	362.38	256.38	286.62	382.03	-438.13	248.04	177.67	-427.6	278.08	207.9	-440.2	257.13	244.06	189.86	35.494	302.3	188.26	69.421	271.43	208.54	45.573	239.21	-285.81	96.618	281.18	-301.76	104.25	171.3	-242.05	70.752	250.81	419.16	62.889	246.07	400.89	41.282	353.75	465.43	67.938	288.25
196	0.81514	166.51	1495.1	488.15	130.15	1527.6	86.606	178.32	1835.9	304.99	221.09	1478.2	283.21	86.062	1553.5	291.62	132.89	1079.5	108.14	147.33	1085.4	444.86	180.84	1011.9	136.22	210.38	1034.6	400.72	77.971	930.29	96.455	144.49	954.18	458.19	-3.6967	1031.7	231.91	1.5057	1026.6	339.01	-8.813	997.04	284.92	53.488	513.14	117.45	72.792	523.81	254.42	288.07	552.28	399.27	273.86	555.26	268.37	-337.06	262.39	168.54	-337.25	268.02	257.52	258.12	84.017	334.59	292.37	122.87	241.55	52.003	752.43	110.63	114.83	742.18	105.83	111.29	670.03	115.6	41.625	682.48	106.15	194.14	766.63	449.17	258.2	792.32	443.63	279.91	719.8	431.21	212.38	696.44	431.99	-39.49	471.53	143.24	1.6578	422.88	148.73	-36.922	391.72	159.41	-73.637	437.14	144.4	259.71	359.73	400.25	323.87	370.49	379.9	323.1	297.69	362.3	258.03	286.65	381.81	-430.27	252.4	177.05	-419.41	282.3	207.32	-432.09	261.39	243.43	190.05	35.827	302.33	188.5	69.682	271.36	208.68	45.724	239.19	-279.01	99.4	279.84	-295.2	107.39	170.02	-235.55	73.194	249.34	419.43	61.954	245.71	401.16	40.952	353.6	465.7	66.861	287.79
197	0.81932	171.82	1496.1	488.25	134.64	1528.4	86.743	183.69	1836.8	305.46	226.08	1479.1	283.22	91.127	1554.3	291.88	138.09	1080.2	108.62	153.02	1086.3	445.27	186.33	1013	136.75	215.88	1035.3	401.21	83.946	930.95	96.812	149.96	954.67	458.57	1.661	1032.1	232.48	7.0093	1027.1	339.6	-3.3323	997.48	285.57	63.627	513.42	116.11	83.339	523.71	253.03	291.28	552.09	399.31	277.26	555.22	268.34	-328.93	265.81	167.62	-328.85	271.3	256.63	258.49	84.217	334.39	292.87	122.78	241.26	60.035	752.66	110.26	122.94	743.18	105.42	120.18	670.93	114.79	50.049	683	104.99	198.7	766.86	449.29	262.78	792.17	443.79	284.07	719.54	431.34	216.47	696.58	432.06	-29.652	472.55	142.02	11.132	423.51	147.37	-27.678	392.65	158.07	-64.095	438.44	143.21	261.73	359.76	400.09	326	370.13	379.84	324.81	297.34	362.22	259.63	286.68	381.59	-422.19	256.57	176.34	-411.04	286.34	206.65	-423.8	265.47	242.72	190.24	36.16	302.36	188.73	69.945	271.29	208.82	45.877	239.17	-271.92	102.13	278.47	-288.33	110.45	168.72	-228.74	75.618	247.86	419.68	61.069	245.37	401.42	40.651	353.47	465.95	65.839	287.36
198	0.8235	177.11	1497.1	488.35	139.08	1529.1	86.862	189.05	1837.6	305.9	231.05	1480.1	283.23	96.176	1555.1	292.14	143.24	1081	109.1	158.68	1087.2	445.69	191.79	1014.1	137.27	221.36	1036	401.7	89.889	931.66	97.152	155.38	955.17	458.94	6.9943	1032.5	233.05	12.479	1027.7	340.21	2.0985	997.92	286.23	73.784	513.81	114.75	93.857	523.75	251.64	294.39	551.91	399.36	280.56	555.17	268.32	-320.6	269.1	166.63	-320.29	274.45	255.66	258.85	84.416	334.19	293.35	122.7	240.98	68.045	752.99	109.86	131.02	744.26	104.98	129.04	671.92	113.96	58.508	683.58	103.88	203.2	767.11	449.42	267.29	792.04	443.92	288.16	719.3	431.45	220.51	696.73	432.14	-19.77	473.61	140.77	20.673	424.21	145.99	-18.345	393.64	156.72	-54.489	439.76	141.99	263.68	359.8	399.95	328.05	369.78	379.8	326.46	297.01	362.17	261.17	286.72	381.4	-413.92	260.53	175.54	-402.5	290.17	205.88	-415.33	269.34	241.9	190.41	36.493	302.39	188.96	70.209	271.21	208.96	46.035	239.15	-264.57	104.79	277.08	-281.17	113.42	167.38	-221.65	78.006	246.36	419.93	60.24	245.06	401.67	40.376	353.36	466.19	64.875	286.97
